<svg height="512pt" viewBox="0 -2 512 512" width="512pt" xmlns="http://www.w3.org/2000/svg"><path d="m205.800781 205.996094h100.40625v100h-100.40625zm0 0" fill="#ffd469"/><path d="m130.492188 255.996094-60.246094 60-60.242188-60 60.242188-60zm0 0" fill="#05eabf"/><path d="m256.207031 109.996094h-.40625c-27.617187 0-50-22.386719-50-50 0-27.613282 22.382813-50 50-50h.40625c27.613281 0 50 22.386718 50 50 0 27.613281-22.386719 50-50 50zm0 0" fill="#b2edf7"/><path d="m316.246094 447.996094c0-27.613282-26.96875-50-60.242188-50-33.273437 0-60.246094 22.386718-60.246094 50 0 27.613281 26.972657 50 60.246094 50 33.273438 0 60.242188-22.386719 60.242188-50zm0 0" fill="#b2edf7"/><path d="m401.59375 205.996094h100.410156v100h-100.410156zm0 0" fill="#ff5691"/><path d="m502 196h-41v-96c0-5.53125-4.46875-10-10-10-5.519531 0-10 4.46875-10 10v96h-39.410156c-5.519532 0-10 4.46875-10 10v100c0 5.519531 4.480468 10 10 10h100.410156c5.53125 0 10-4.480469 10-10v-100c0-5.53125-4.46875-10-10-10zm-10 100h-80.410156v-80h80.410156zm0 0"/><path d="m411 50h-95.628906c-4.769532-28.351562-29.492188-50-59.160156-50h-.410157c-29.679687 0-54.390625 21.648438-59.160156 50h-126.390625c-5.519531 0-10 4.46875-10 10v131.839844l-57.300781 57.070312c-1.890625 1.878906-2.949219 4.429688-2.949219 7.089844s1.058594 5.210938 2.949219 7.078125l57.300781 57.070313v127.851562c0 5.519531 4.480469 10 10 10h101.300781l-18.492187 18.410156c-3.917969 3.898438-3.929688 10.230469-.027344 14.140625 1.949219 1.960938 4.519531 2.949219 7.078125 2.949219 2.5625 0 5.109375-.96875 7.0625-2.921875l22.628906-22.539063c9.667969 23.261719 35.6875 39.960938 66.199219 39.960938 38.738281 0 70.25-26.921875 70.25-60 0-33.089844-31.511719-60-70.25-60-30.5 0-56.53125 16.691406-66.199219 39.949219l-22.472656-22.378907c-3.917969-3.898437-10.25-3.890624-14.148437.03125-3.890626 3.910157-3.878907 10.238282.03125 14.136719l18.339843 18.261719h-91.300781v-117.859375l54.359375-54.128906 61.191406.078125v39.910156c0 5.519531 4.480469 10 10 10h100.410157c5.519531 0 10-4.480469 10-10v-100c0-5.53125-4.480469-10-10-10h-100.410157c-5.519531 0-10 4.46875-10 10v40.089844l-61.171875-.078125-54.378906-54.160157v-121.851562h116.390625c4.769531 28.339844 29.480469 50 59.160156 50h.410157c29.667968 0 54.390624-21.660156 59.160156-50h95.628906c5.53125 0 10-4.480469 10-10 0-5.53125-4.46875-10-10-10zm-205.238281 397.980469c.007812-22.050781 22.546875-39.980469 50.238281-39.980469 27.710938 0 50.25 17.941406 50.25 40 0 22.050781-22.539062 40-50.25 40-27.699219 0-50.238281-17.949219-50.238281-40 0-.011719 0-.011719 0-.019531zm10.039062-191.871094c0-.007813 0-.007813 0-.019531v-40.089844h80.410157v80h-80.410157zm-99.480469-.109375-46.070312 45.878906-46.078125-45.878906 46.078125-45.890625zm139.890626-156h-.410157c-22.0625 0-40-17.949219-40-40 0-22.058594 17.9375-40 40-40h.410157c22.050781 0 40 17.941406 40 40 0 22.050781-17.949219 40-40 40zm0 0"/><path d="m451.023438 69.996094c-5.523438 0-10.007813-4.476563-10.007813-10 0-5.519532 4.472656-10 9.996094-10h.011719c5.523437 0 10 4.480468 10 10 0 5.523437-4.476563 10-10 10zm0 0"/></svg>